<?xml version="1.0" encoding="UTF-8" standalone="no"?>
<!-- Created with Inkscape (http://www.inkscape.org/) -->

<svg
   xmlns:dc="http://purl.org/dc/elements/1.1/"
   xmlns:cc="http://creativecommons.org/ns#"
   xmlns:rdf="http://www.w3.org/1999/02/22-rdf-syntax-ns#"
   xmlns:svg="http://www.w3.org/2000/svg"
   xmlns="http://www.w3.org/2000/svg"
   xmlns:sodipodi="http://sodipodi.sourceforge.net/DTD/sodipodi-0.dtd"
   xmlns:inkscape="http://www.inkscape.org/namespaces/inkscape"
   width="1in"
   height="0.18000001in"
   viewBox="0 0 25.4 4.5720003"
   version="1.1"
   id="svg128"
   inkscape:export-filename="/home/david/Desktop/foodchain.png"
   inkscape:export-xdpi="2400"
   inkscape:export-ydpi="2400"
   inkscape:version="0.92.3 (2405546, 2018-03-11)"
   sodipodi:docname="foodchain.svg">
  <defs
     id="defs122" />
  <sodipodi:namedview
     id="base"
     pagecolor="#ffffff"
     bordercolor="#666666"
     borderopacity="1.0"
     inkscape:pageopacity="0.0"
     inkscape:pageshadow="2"
     inkscape:zoom="5.6"
     inkscape:cx="-3.9014637"
     inkscape:cy="22.725094"
     inkscape:document-units="mm"
     inkscape:current-layer="layer1"
     showgrid="false"
     units="in"
     inkscape:window-width="1920"
     inkscape:window-height="1025"
     inkscape:window-x="0"
     inkscape:window-y="28"
     inkscape:window-maximized="1" />
  <metadata
     id="metadata125">
    <rdf:RDF>
      <cc:Work
         rdf:about="">
        <dc:format>image/svg+xml</dc:format>
        <dc:type
           rdf:resource="http://purl.org/dc/dcmitype/StillImage" />
        <dc:title></dc:title>
      </cc:Work>
    </rdf:RDF>
  </metadata>
  <g
     inkscape:label="Layer 1"
     inkscape:groupmode="layer"
     id="layer1"
     transform="translate(0,-292.42798)">
    <g
       id="g209">
      <path
         d="m 5.2740119,294.12625 c 0.5257411,0.52628 0.5185278,1.37005 0.00317,1.88827 -9.855e-4,10e-4 -0.00211,0.002 -0.00317,0.003 l -0.5913234,0.59133 c -0.521544,0.52154 -1.3700672,0.52147 -1.8915305,0 -0.521544,-0.52146 -0.521544,-1.37008 0,-1.89153 l 0.3265123,-0.32652 c 0.086586,-0.0866 0.2357008,-0.029 0.240171,0.0933 0.0057,0.15595 0.033668,0.31262 0.085267,0.46392 0.017477,0.0512 0.00499,0.1079 -0.033289,0.14617 l -0.1151566,0.11516 c -0.2466154,0.24662 -0.2543503,0.64817 -0.010164,0.8972 0.2465981,0.25148 0.6519178,0.25297 0.9004065,0.004 l 0.5913234,-0.59124 c 0.2480624,-0.24807 0.2470244,-0.64902 0,-0.89605 -0.032567,-0.0325 -0.065371,-0.0578 -0.090998,-0.0754 a 0.14111692,0.14111692 0 0 1 -0.06113,-0.11093 c -0.0035,-0.093 0.029463,-0.1888 0.1029367,-0.26227 l 0.1852639,-0.18528 c 0.048583,-0.0486 0.1247961,-0.0545 0.1811284,-0.0152 a 1.3417591,1.3417591 0 0 1 0.1805818,0.15133 z m 1.2401524,-1.24022 c -0.5214642,-0.52147 -1.3699874,-0.52154 -1.8915313,0 l -0.5913234,0.59133 c -0.00106,0.001 -0.00219,0.002 -0.00317,0.003 -0.5153468,0.51822 -0.5225717,1.36199 0.00317,1.88827 a 1.3415127,1.3415127 0 0 0 0.1805747,0.15132 c 0.056332,0.0393 0.132553,0.0333 0.1811284,-0.0152 l 0.1852631,-0.18527 c 0.073474,-0.0735 0.1064197,-0.1693 0.1029367,-0.26228 a 0.14111692,0.14111692 0 0 0 -0.06113,-0.11093 c -0.025626,-0.0176 -0.05843,-0.0429 -0.090998,-0.0754 -0.2470276,-0.24703 -0.2480663,-0.64798 0,-0.89605 l 0.5913234,-0.59123 c 0.2484887,-0.24849 0.653802,-0.24699 0.9004072,0.004 0.244186,0.24902 0.2364589,0.65058 -0.010165,0.89719 l -0.1151559,0.11516 c -0.03828,0.0383 -0.050765,0.0949 -0.033289,0.14618 0.051599,0.15129 0.079561,0.30797 0.085267,0.46391 0.00448,0.12237 0.1535857,0.17992 0.2401718,0.0933 l 0.3265123,-0.32651 c 0.5215517,-0.52145 0.5215517,-1.37007 7.8e-6,-1.89153 z"
         id="path2"
         inkscape:connector-curvature="0"
         style="font-style:normal;font-variant:normal;font-weight:normal;font-stretch:normal;font-size:medium;line-height:1.25;font-family:Righteous;-inkscape-font-specification:'Righteous, Normal';font-variant-ligatures:normal;font-variant-caps:normal;font-variant-numeric:normal;font-feature-settings:normal;text-align:start;letter-spacing:0px;word-spacing:0px;writing-mode:lr-tb;text-anchor:start;fill:currentColor;fill-opacity:1;stroke:none;stroke-width:0.00879946" />
      <g
         id="text14"
         style="font-style:normal;font-variant:normal;font-weight:normal;font-stretch:normal;font-size:68.5522995px;line-height:1.25;font-family:Righteous;-inkscape-font-specification:'Righteous, Normal';font-variant-ligatures:normal;font-variant-caps:normal;font-variant-numeric:normal;font-feature-settings:normal;text-align:start;letter-spacing:0px;word-spacing:0px;writing-mode:lr-tb;text-anchor:start;fill:#000000;fill-opacity:1;stroke:none;stroke-width:1.71380758"
         aria-label="F"
         transform="matrix(0.07821759,0,0,0.07821759,-9.8170565,279.80162)">
        <path
           inkscape:connector-curvature="0"
           id="path49"
           style="stroke-width:1.71380758"
           d="m 135.11627,215.07845 h -9.60669 v -48 h 33.60669 v 9.60669 h -24 v 9.6067 h 14.39331 v 9.60669 h -14.39331 z" />
      </g>
      <path
         inkscape:connector-curvature="0"
         id="path52"
         style="font-style:normal;font-variant:normal;font-weight:normal;font-stretch:normal;font-size:medium;line-height:1.25;font-family:Righteous;-inkscape-font-specification:'Righteous, Normal';font-variant-ligatures:normal;font-variant-caps:normal;font-variant-numeric:normal;font-feature-settings:normal;text-align:start;letter-spacing:0px;word-spacing:0px;writing-mode:lr-tb;text-anchor:start;fill:#000000;fill-opacity:1;stroke:none;stroke-width:0.12944616"
         d="m 10.245697,294.73341 q 0,0.2503 -0.06573,0.48289 -0.06321,0.23007 -0.1820338,0.43233 -0.1188282,0.19974 -0.2831641,0.3666 -0.1643359,0.16434 -0.3665949,0.28316 -0.2022597,0.11883 -0.4348585,0.18457 -0.2300708,0.0632 -0.4803671,0.0632 H 7.3407431 v -3.6255 h 1.0922015 q 0.2502963,0 0.4803671,0.0657 0.2325988,0.0632 0.4348585,0.18204 0.202259,0.11882 0.3665949,0.28569 0.1643359,0.16433 0.2831641,0.36659 0.1188278,0.19973 0.1820338,0.43233 0.06573,0.23007 0.06573,0.48037 z m -0.7256069,0 q 0,-0.22501 -0.08596,-0.42222 -0.083432,-0.1972 -0.232598,-0.34384 -0.1466385,-0.14917 -0.3463702,-0.23513 -0.197203,-0.086 -0.422217,-0.086 H 8.0714057 v 2.1743 h 0.3615389 q 0.225014,0 0.422217,-0.0834 0.1997317,-0.086 0.3463702,-0.2326 0.1491664,-0.14916 0.232598,-0.34637 0.08596,-0.19973 0.08596,-0.42474 z" />
      <path
         inkscape:connector-curvature="0"
         id="path54"
         style="font-style:normal;font-variant:normal;font-weight:normal;font-stretch:normal;font-size:medium;line-height:1.25;font-family:Righteous;-inkscape-font-specification:'Righteous, Normal';font-variant-ligatures:normal;font-variant-caps:normal;font-variant-numeric:normal;font-feature-settings:normal;text-align:start;letter-spacing:0px;word-spacing:0px;writing-mode:lr-tb;text-anchor:start;fill:#000000;fill-opacity:1;stroke:none;stroke-width:0.12944616"
         d="m 13.623433,296.17451 q -0.252825,0.21743 -0.566327,0.33373 -0.313502,0.1163 -0.649759,0.1163 -0.257881,0 -0.498065,-0.0683 -0.237654,-0.0657 -0.447499,-0.18709 -0.207316,-0.12388 -0.379237,-0.2958 -0.171921,-0.17192 -0.295804,-0.37924 -0.121356,-0.20984 -0.189619,-0.4475 -0.06573,-0.24018 -0.06573,-0.49806 0,-0.25788 0.06573,-0.49807 0.06826,-0.24018 0.189619,-0.44749 0.123883,-0.20985 0.295804,-0.38177 0.171921,-0.17192 0.379237,-0.29328 0.209845,-0.12388 0.447499,-0.18962 0.240184,-0.0683 0.498065,-0.0683 0.336257,0 0.649759,0.1163 0.313502,0.11377 0.566327,0.33373 l -0.384294,0.63206 q -0.159279,-0.17192 -0.376708,-0.26294 -0.217429,-0.0935 -0.455084,-0.0935 -0.240184,0 -0.450028,0.091 -0.209845,0.091 -0.366596,0.24776 -0.156751,0.15423 -0.247767,0.3666 -0.09102,0.20984 -0.09102,0.4475 0,0.23765 0.09102,0.4475 0.09102,0.20731 0.247767,0.36407 0.156751,0.15675 0.366596,0.24776 0.209844,0.091 0.450028,0.091 0.237655,0 0.455084,-0.091 0.217429,-0.0935 0.376708,-0.26546 z" />
      <path
         inkscape:connector-curvature="0"
         id="path56"
         style="font-style:normal;font-variant:normal;font-weight:normal;font-stretch:normal;font-size:medium;line-height:1.25;font-family:Righteous;-inkscape-font-specification:'Righteous, Normal';font-variant-ligatures:normal;font-variant-caps:normal;font-variant-numeric:normal;font-feature-settings:normal;text-align:start;letter-spacing:0px;word-spacing:0px;writing-mode:lr-tb;text-anchor:start;fill:#000000;fill-opacity:1;stroke:none;stroke-width:0.12944616"
         d="M 14.771256,296.54616 H 14.04565 v -3.6255 h 0.725606 v 1.45121 h 1.448685 v -1.45121 h 0.725606 v 3.6255 h -0.725606 v -1.44868 h -1.448685 z" />
      <path
         inkscape:connector-curvature="0"
         id="path58"
         style="font-style:normal;font-variant:normal;font-weight:normal;font-stretch:normal;font-size:medium;line-height:1.25;font-family:Righteous;-inkscape-font-specification:'Righteous, Normal';font-variant-ligatures:normal;font-variant-caps:normal;font-variant-numeric:normal;font-feature-settings:normal;text-align:start;letter-spacing:0px;word-spacing:0px;writing-mode:lr-tb;text-anchor:start;fill:#000000;fill-opacity:1;stroke:none;stroke-width:0.12944616"
         d="m 19.749371,295.09748 v -0.72561 q 0,-0.14917 -0.05815,-0.28063 -0.05562,-0.134 -0.154224,-0.2326 -0.0986,-0.0986 -0.232598,-0.15423 -0.131468,-0.0582 -0.280635,-0.0582 -0.149166,0 -0.283164,0.0582 -0.131468,0.0556 -0.23007,0.15423 -0.0986,0.0986 -0.156751,0.2326 -0.05562,0.13146 -0.05562,0.28063 v 0.72561 z m 0.725606,1.44868 h -0.725606 v -0.7256 h -1.451213 v 0.7256 H 17.57508 v -2.17429 q 0,-0.30086 0.113771,-0.5638 0.113771,-0.26546 0.308446,-0.46267 0.197204,-0.1972 0.460141,-0.31097 0.265465,-0.11377 0.566327,-0.11377 0.300861,0 0.563799,0.11377 0.265466,0.11377 0.462669,0.31097 0.197202,0.19721 0.310974,0.46267 0.11377,0.26294 0.11377,0.5638 z" />
      <path
         inkscape:connector-curvature="0"
         id="path60"
         style="font-style:normal;font-variant:normal;font-weight:normal;font-stretch:normal;font-size:medium;line-height:1.25;font-family:Righteous;-inkscape-font-specification:'Righteous, Normal';font-variant-ligatures:normal;font-variant-caps:normal;font-variant-numeric:normal;font-feature-settings:normal;text-align:start;letter-spacing:0px;word-spacing:0px;writing-mode:lr-tb;text-anchor:start;fill:#000000;fill-opacity:1;stroke:none;stroke-width:0.12944616"
         d="m 21.830118,296.54616 h -0.725607 v -3.6255 h 0.725607 z" />
      <path
         inkscape:connector-curvature="0"
         id="path62"
         style="font-style:normal;font-variant:normal;font-weight:normal;font-stretch:normal;font-size:medium;line-height:1.25;font-family:Righteous;-inkscape-font-specification:'Righteous, Normal';font-variant-ligatures:normal;font-variant-caps:normal;font-variant-numeric:normal;font-feature-settings:normal;text-align:start;letter-spacing:0px;word-spacing:0px;writing-mode:lr-tb;text-anchor:start;fill:#000000;fill-opacity:1;stroke:none;stroke-width:0.12944616"
         d="m 25.4,296.54616 h -0.776171 l -1.39812,-2.38666 v 2.38666 h -0.725607 v -3.6255 h 0.776171 l 1.39812,2.38919 v -2.38919 H 25.4 Z" />
    </g>
  </g>
</svg>
